<mxfile host="app.diagrams.net" modified="2022-08-16T00:53:36.530Z" agent="5.0 (Windows NT 10.0; Win64; x64) AppleWebKit/537.36 (KHTML, like Gecko) Chrome/104.0.0.0 Safari/537.36" etag="ScKomJ4xAeqlOApaUS8e" version="20.2.3" type="github">
  <diagram id="prtHgNgQTEPvFCAcTncT" name="Page-1">
    <mxGraphModel dx="1422" dy="802" grid="1" gridSize="10" guides="1" tooltips="1" connect="1" arrows="1" fold="1" page="1" pageScale="1" pageWidth="827" pageHeight="1169" math="0" shadow="0">
      <root>
        <mxCell id="0" />
        <mxCell id="1" parent="0" />
        <mxCell id="b6QTpJ_JXOi0sd0j5yyR-1" value="Pool" style="swimlane;childLayout=stackLayout;resizeParent=1;resizeParentMax=0;startSize=20;" vertex="1" parent="1">
          <mxGeometry x="60" y="60" width="640" height="680" as="geometry" />
        </mxCell>
        <mxCell id="b6QTpJ_JXOi0sd0j5yyR-2" value="锁屏软件/控制终端" style="swimlane;startSize=20;" vertex="1" parent="b6QTpJ_JXOi0sd0j5yyR-1">
          <mxGeometry y="20" width="330" height="660" as="geometry" />
        </mxCell>
        <mxCell id="b6QTpJ_JXOi0sd0j5yyR-8" value="开机/上电" style="ellipse;whiteSpace=wrap;html=1;" vertex="1" parent="b6QTpJ_JXOi0sd0j5yyR-2">
          <mxGeometry x="90" y="60" width="120" height="80" as="geometry" />
        </mxCell>
        <mxCell id="b6QTpJ_JXOi0sd0j5yyR-9" value="尝试与服务器建立连接" style="rounded=0;whiteSpace=wrap;html=1;" vertex="1" parent="b6QTpJ_JXOi0sd0j5yyR-2">
          <mxGeometry x="90" y="180" width="120" height="60" as="geometry" />
        </mxCell>
        <mxCell id="b6QTpJ_JXOi0sd0j5yyR-13" style="edgeStyle=orthogonalEdgeStyle;rounded=0;orthogonalLoop=1;jettySize=auto;html=1;entryX=-0.008;entryY=0.4;entryDx=0;entryDy=0;entryPerimeter=0;" edge="1" parent="b6QTpJ_JXOi0sd0j5yyR-2" source="b6QTpJ_JXOi0sd0j5yyR-10" target="b6QTpJ_JXOi0sd0j5yyR-9">
          <mxGeometry relative="1" as="geometry">
            <Array as="points">
              <mxPoint x="70" y="320" />
              <mxPoint x="70" y="204" />
            </Array>
          </mxGeometry>
        </mxCell>
        <mxCell id="b6QTpJ_JXOi0sd0j5yyR-10" value="结果" style="rhombus;whiteSpace=wrap;html=1;rounded=0;" vertex="1" parent="b6QTpJ_JXOi0sd0j5yyR-2">
          <mxGeometry x="110" y="280" width="80" height="80" as="geometry" />
        </mxCell>
        <mxCell id="b6QTpJ_JXOi0sd0j5yyR-11" value="" style="edgeStyle=orthogonalEdgeStyle;rounded=0;orthogonalLoop=1;jettySize=auto;html=1;" edge="1" parent="b6QTpJ_JXOi0sd0j5yyR-2" source="b6QTpJ_JXOi0sd0j5yyR-9" target="b6QTpJ_JXOi0sd0j5yyR-10">
          <mxGeometry relative="1" as="geometry" />
        </mxCell>
        <mxCell id="b6QTpJ_JXOi0sd0j5yyR-3" value="TCP服务器" style="swimlane;startSize=20;" vertex="1" parent="b6QTpJ_JXOi0sd0j5yyR-1">
          <mxGeometry x="330" y="20" width="310" height="660" as="geometry" />
        </mxCell>
      </root>
    </mxGraphModel>
  </diagram>
</mxfile>
